#define native_width 48
#define native_height 48
static char native_bits[] = {
   0x00, 0x00, 0x25, 0x03, 0x00, 0x00, 0x00, 0x00, 0xef, 0x03, 0x00, 0x00,
   0x00, 0x00, 0xfe, 0x03, 0x00, 0x00, 0x00, 0x00, 0xfc, 0x01, 0x00, 0x00,
   0x00, 0x00, 0xfc, 0x01, 0x00, 0x00, 0x00, 0x00, 0xf8, 0x00, 0x00, 0x00,
   0x00, 0x00, 0xf8, 0x00, 0x00, 0x00, 0x00, 0x00, 0x78, 0x00, 0x00, 0x00,
   0x00, 0x00, 0x70, 0x00, 0x08, 0x00, 0x00, 0x00, 0x70, 0x00, 0x0c, 0x00,
   0x00, 0x00, 0x30, 0x00, 0x0c, 0x00, 0x00, 0x00, 0x20, 0x00, 0x06, 0x00,
   0x00, 0x00, 0x20, 0x00, 0x06, 0x00, 0x00, 0x00, 0x20, 0x00, 0x07, 0x00,
   0x00, 0xfc, 0x20, 0x00, 0x03, 0x00, 0x00, 0x04, 0x7f, 0x00, 0x03, 0x00,
   0x00, 0x04, 0xf0, 0x80, 0x01, 0x00, 0x00, 0x04, 0x20, 0x83, 0x01, 0x00,
   0x00, 0x04, 0x40, 0xc6, 0x00, 0x00, 0x00, 0x04, 0x40, 0x78, 0x00, 0x00,
   0x00, 0x02, 0x40, 0x70, 0x00, 0x00, 0x00, 0x02, 0x40, 0x00, 0x00, 0x00,
   0x00, 0x02, 0x40, 0x00, 0x00, 0x00, 0x00, 0x02, 0x40, 0x00, 0x00, 0x00,
   0x00, 0x00, 0x40, 0x00, 0x00, 0x00, 0x00, 0x00, 0x40, 0x00, 0x00, 0x00,
   0x00, 0x00, 0x40, 0xf8, 0x01, 0x00, 0x00, 0x00, 0xe0, 0x8f, 0x00, 0x00,
   0x00, 0x00, 0x20, 0x80, 0x00, 0x00, 0x00, 0x00, 0x30, 0x80, 0x00, 0x00,
   0x00, 0x00, 0x10, 0x80, 0x00, 0x00, 0x00, 0x00, 0x18, 0x80, 0x00, 0x00,
   0x00, 0x00, 0x08, 0x80, 0x00, 0x00, 0x00, 0x00, 0x04, 0x80, 0x00, 0x00,
   0x00, 0x00, 0x04, 0x80, 0x00, 0x00, 0x00, 0x00, 0x06, 0x80, 0x30, 0x00,
   0x00, 0x00, 0x02, 0x80, 0x1f, 0x00, 0x00, 0x00, 0x02, 0x00, 0x00, 0x00,
   0x00, 0x00, 0x02, 0x00, 0x00, 0x00, 0x00, 0x00, 0x04, 0x00, 0x00, 0x00,
   0x00, 0x00, 0x0c, 0x00, 0x00, 0x00, 0x00, 0x00, 0x08, 0x00, 0x00, 0x00,
   0x00, 0x00, 0x10, 0x00, 0x00, 0x00, 0x00, 0x00, 0x30, 0x00, 0x00, 0x00,
   0x00, 0x00, 0x30, 0x00, 0x00, 0x00, 0x00, 0x00, 0x18, 0x00, 0x00, 0x00,
   0x00, 0x00, 0x04, 0x00, 0x00, 0x00, 0x00, 0x00, 0x04, 0x00, 0x00, 0x00};
